<svg width="1024" height="1024" viewBox="0 0 1024 1024" fill="none" xmlns="http://www.w3.org/2000/svg">
<path fill-rule="evenodd" clip-rule="evenodd" d="M81.5344 729.645C81.7883 730.33 82.0439 731.015 82.3012 731.699C82.0384 731.017 81.7829 730.333 81.5344 729.645Z" fill="#000628"/>
<path d="M224.865 739.388L225.84 739.814C226.318 740.023 226.798 740.233 227.281 740.444L228.949 741.175C238.434 745.329 248.864 749.931 260.067 754.901C265.435 757.282 270.98 759.748 276.683 762.289C344.602 792.551 434.981 833.531 515.776 870.338C622.164 918.804 711.935 960.034 711.935 960.034L625.44 807.597L625.457 807.563C689.763 801.81 750.871 779.282 802.969 743.327L623.136 682.288C618.972 680.875 619.959 674.732 624.356 674.691L879.838 672.314C911.585 633.262 935.803 587.062 949.675 535.337C955.427 513.888 959.164 492.374 961 470.995L702.332 528.543C698.129 529.478 695.726 523.926 699.286 521.507L951.263 350.266C941.011 309.505 923.877 270.883 900.823 236.068L901.318 235.042L467.16 536.456L360.297 610.936C328.694 632.961 288.336 630.604 252.922 615.434C244.247 611.718 236.383 608.412 229.894 605.795C227.378 604.778 221.77 602.511 215.861 600.459C212.583 599.321 209.046 598.183 205.545 597.22L205.29 597.15L205.096 597.097L205.004 597.073C204.923 597.051 204.841 597.029 204.76 597.007C194.479 594.255 184.151 592.982 174.001 593.059C119.288 594.903 75.5 639.838 75.5 695C75.5 707.163 77.629 718.829 81.5344 729.645C81.7883 730.33 82.0439 731.015 82.3012 731.699C87.5844 745.395 95.7382 757.664 106.025 767.769C106.089 763.508 106.675 759.185 107.829 754.881C112.263 738.347 124.096 725.767 138.815 719.745C149.116 715.531 160.829 714.528 172.41 717.629C176.135 718.626 188.335 723.61 206.699 731.507C212.219 733.881 218.295 736.518 224.865 739.388Z" fill="#000628"/>
<path d="M503.206 448.129L437.467 493.768L330.564 568.275C320.809 575.073 305.362 577.785 285.437 571.982L102.619 464.248C94.6683 414.568 96.8161 362.46 110.688 310.734C116.441 289.286 123.972 268.788 133.081 249.355L312.294 404.41C315.466 407.32 320.325 403.713 318.453 399.839L201.932 149.665C231.209 119.486 269.03 88.9274 302.765 75.9637C336.5 63 344.137 63 344.137 63L503.206 448.129Z" fill="#000628"/>
</svg>
